<?xml version="1.0" encoding="utf-8"?>
<!-- Generator: Adobe Illustrator 15.1.0, SVG Export Plug-In . SVG Version: 6.00 Build 0)  -->
<!DOCTYPE svg PUBLIC "-//W3C//DTD SVG 1.1//EN" "http://www.w3.org/Graphics/SVG/1.1/DTD/svg11.dtd">
<svg version="1.1" id="Layer_1" xmlns="http://www.w3.org/2000/svg" xmlns:xlink="http://www.w3.org/1999/xlink" x="0px" y="0px"
	 width="187.324px" height="29px" viewBox="0 0 187.324 29" enable-background="new 0 0 187.324 29" xml:space="preserve">
<g>
	<g>
		<path fill="#FFFFFF" d="M10.513,0.001c3.599-0.056,7.403,1.503,9.281,4.701c2.108,3.77,2.204,8.594,0.344,12.483
			c-3.135,6.465-13.386,7.057-17.742,1.602C-0.806,14.464-0.801,8.019,2.424,3.708C4.321,1.23,7.486,0.124,10.513,0.001z
			 M8.701,3.445c-2.908,1.304-3.902,4.866-3.864,7.804c-0.042,2.493,0.633,5.144,2.464,6.929c2.147,2.084,6.106,1.633,7.714-0.908
			c2.318-3.547,2.309-8.504-0.014-12.042C13.687,3.208,10.876,2.536,8.701,3.445z"/>
	</g>
	<path fill="#FFFFFF" d="M88.966,4.631c0.786-0.369,2.115-0.658,2.494,0.397c-0.332,1.475-0.951,2.867-1.435,4.296
		c0.455,0.098,1.368,0.302,1.822,0.405c-0.241,0.842-0.209,1.939-1.065,2.441c-0.562,0.232-1.134,0.436-1.716,0.615
		c-0.245,1.661-0.927,3.373-0.53,5.052c0.237,1.096,1.595,1.096,2.409,1.484c-1.123,1-2.295,2.248-3.917,2.262
		c-1.613,0.213-3.113-1.164-3.165-2.758c-0.123-2.039,0.596-3.997,1.141-5.927c-0.294-0.179-0.885-0.534-1.179-0.714
		c-0.857-2.528,1.196-2.426,2.366-3.169C86.919,7.469,87.298,5.459,88.966,4.631z"/>
	<path fill="#FFFFFF" d="M92.632,15.404c1.335-4.241,6.254-7.992,10.734-6.071c-1.307,0.491-2.764,0.695-3.891,1.574
		c-2.015,1.617-2.885,4.442-2.273,6.934c0.351,1.027,1.456,1.992,2.592,1.625c1.457-0.707,2.062-2.457,1.814-3.99
		c-0.051-1.508-1.317-2.506-2.178-3.599c1.232-0.676,2.643-1.84,4.111-1.187c2.111,1.177,2.154,3.978,1.64,6.052
		c-1.24,4.609-7.581,6.682-11.343,3.773C92.229,19.365,92.169,17.145,92.632,15.404z"/>
	<path fill="#FFFFFF" d="M155.03,13.936c1.588-2.966,4.742-5.322,8.219-5.157c0.659-0.072,1.179,0.369,1.693,0.696
		c-1.739,0.453-3.703,0.893-4.739,2.525c-1.362,1.931-2.254,5.013-0.477,6.955c1.689,1.695,3.817-0.74,3.752-2.531
		c0.239-1.846-1.072-3.283-2.253-4.509c1.319-0.808,3.15-2.181,4.607-0.899c2.189,1.97,1.664,5.529,0.183,7.777
		c-1.9,2.479-5.435,3.746-8.437,2.713c-1.374-0.42-2.802-1.289-3.189-2.76C153.82,17.141,154.318,15.404,155.03,13.936z"/>
	<path fill="#FFFFFF" d="M24.158,11.778c0.515-1.164,1.381-2.554,2.815-2.573c1.333-0.203,2.445,1.301,1.977,2.54
		c-0.578,2.006-1.675,3.826-2.19,5.861c2.431-1.893,4.049-4.762,6.872-6.145c1.325-0.33,1.377,1.225,1.325,2.129
		c-0.161,2.583-0.227,5.173,0.038,7.751c-1.264,0.365-2.796,0.965-3.964,0.047c-1.158-0.795-0.898-2.316-1.012-3.531
		c-1.731,1.516-3.504,3.082-5.633,4.006c-0.988,0.506-2.086-0.58-2.029-1.578C22.224,17.354,23.095,14.478,24.158,11.778z"/>
	<g>
		<path fill="#FFFFFF" d="M36.631,15.137c1.077-2.782,3.376-5.298,6.4-5.88c1.275-0.321,2.761,0.359,3.126,1.675
			c0.874,3.823-2.606,6.865-5.889,7.979c1.821,0.498,3.206-0.941,4.697-1.693c0.388,0.123,1.173,0.365,1.565,0.484
			c-1.68,1.891-3.794,3.537-6.306,4.09c-1.451,0.32-3.154-0.18-3.901-1.537C35.401,18.65,36.035,16.73,36.631,15.137z M40.33,17.975
			c1.977-1.779,2.697-4.499,2.559-7.076C41.11,12.786,40.316,15.422,40.33,17.975z"/>
	</g>
	<g>
		<path fill="#FFFFFF" d="M47.491,16.029c0.956-3.059,3.25-5.949,6.475-6.72c1.3-0.383,2.914,0.156,3.373,1.522
			c0.993,3.822-2.602,7.006-5.926,8.055c1.892,0.586,3.292-0.969,4.853-1.705c0.364,0.143,1.093,0.438,1.457,0.584
			c-1.693,1.779-3.703,3.424-6.143,3.996c-1.424,0.346-3.122-0.055-3.96-1.332C46.734,19.123,47.064,17.434,47.491,16.029z
			 M51.426,17.998c2.091-1.727,2.862-4.54,2.648-7.166C52.329,12.804,51.578,15.414,51.426,17.998z"/>
	</g>
	<path fill="#FFFFFF" d="M72.653,13.42c1.376-2.428,4.068-4.272,6.925-4.149c1.58,0.151,2.478,1.556,3.027,2.89
		c-0.686,1.693-2.015,3.93-4.206,3.192c0.35-1.499,0.511-3.045,0.198-4.568c-1.139,0.987-2.066,2.274-2.165,3.826
		c1.201,1.689,3.732,1.207,5.202,2.515c0.918,0.889,0.54,2.391-0.103,3.33c-1.633,2.305-4.348,4.078-7.271,3.744
		c-1.329,0.027-2.899-1.027-2.582-2.52c0.481-1.801,2.34-2.758,4.105-2.771c-0.403,1.227-0.955,2.531-0.246,3.764
		c1.026-0.744,1.797-1.746,2.086-3.002c-1.438-1.049-3.231-1.373-4.73-2.293C71.613,16.455,71.972,14.607,72.653,13.42z"/>
	<path fill="#FFFFFF" d="M114.064,9.654c1.063-0.216,2.945-1.106,3.271,0.502c0.31,3.174,0.418,6.399,1.354,9.479
		c0.738-2.555,0.623-5.222,0.772-7.848c0.174-1.518,2.329-3.15,3.63-1.925c0.418,4.106-0.987,8.239-2.85,11.853
		c-0.574,1.377-2.149,2.277-3.563,1.5c-2.228-1.414-2.553-4.291-3.018-6.656c-0.992,1.883-1.598,4.33-3.6,5.398
		c-1.276,0.496-2.106-0.871-2.45-1.889c-0.973-2.785-1.396-5.836-0.931-8.763c0.411-1.67,2.308-1.85,3.741-1.789
		c0.473,2.602,0.298,5.26,0.558,7.883C112.141,14.873,113.021,12.232,114.064,9.654z"/>
	<path fill="#FFFFFF" d="M126.162,11.499c0.507-0.932,1.24-2.137,2.479-1.962c0.7-0.099,1.23,0.573,1.234,1.225
		c0.139,1.418-0.279,2.81-0.538,4.191c1.33-1.382,2.464-3.085,4.245-3.922c1.124-0.5,2.537,0.313,2.399,1.614
		c-0.052,2.805-0.632,5.661,0.336,8.395c-1.02,0.596-2.308,1.465-3.47,0.689c-1.717-1.203-1.561-3.502-1.475-5.354
		c-1.25,1.402-2.462,2.84-3.602,4.334c-0.658,0.732-1.268,1.887-2.437,1.641c-1.134-0.43-1.665-1.738-1.437-2.877
		C124.294,16.734,124.976,14.006,126.162,11.499z"/>
	<path fill="#FFFFFF" d="M149.824,9.699c1.207-0.738,3.047-0.278,3.501,1.13c0.368,2.076-1.451,3.965-3.448,4.2
		c0.336-1.215,1.143-2.356,0.913-3.675c-1.485,1.272-2.545,3.375-2.786,5.22c-0.12,1.33,0.146,3.135,1.325,2.674
		c1.631-0.307,2.489-1.703,3.723-2.563c0.084,3.107-2.885,5.766-5.936,5.449c-1.907-0.162-3.23-2.205-2.908-4.025
		C144.754,14.695,146.774,11.411,149.824,9.699z"/>
	<path fill="#FFFFFF" d="M179.044,9.621c1.318-0.728,2.795,0.776,2.538,2.11c-0.197,1.371-0.759,2.653-1.134,3.982
		c1.445-1.372,2.687-2.969,4.243-4.219c1.097-1.059,2.732,0.341,2.628,1.613c-0.041,2.721-1.11,5.444-0.353,8.157
		c0.103,0.848,0.804,2.094-0.332,2.541c-1.651,1.195-3.808-0.387-4.191-2.123c-0.279-1.564-0.089-3.16-0.024-4.73
		c-1.526,1.576-2.937,3.285-4.626,4.684c-1.105,0.988-2.907-0.037-2.969-1.418c-0.034-1.391,0.652-2.66,1.011-3.975
		c-1.859,1.881-3.176,4.391-5.551,5.684c-1.392,0.172-2.262-1.369-2.104-2.594c0.197-2.08,1.026-4.027,1.773-5.955
		c0.525-1.174,0.955-2.479,1.967-3.34c0.776-0.78,2.198-0.582,2.837,0.289c0.181,1.821-0.823,3.462-1.319,5.154
		C175.282,13.523,176.645,10.979,179.044,9.621z"/>
	<path fill="#FFFFFF" d="M61.709,10.033c0.774-0.89,2.45-0.633,2.677,0.609c0.194,1.477-0.365,2.919-0.591,4.357
		c1.353-1.434,2.496-3.306,4.427-4.025c0.913-0.294,2.171,0.193,2.157,1.291c0.086,2.942-0.591,5.942,0.397,8.811
		c-1.054,0.578-2.431,1.48-3.571,0.578c-1.656-1.252-1.366-3.531-1.32-5.35c-1.641,1.779-3.051,3.756-4.64,5.572
		c-0.95,1.186-2.763,0.053-2.838-1.244c-0.142-1.924,0.407-3.816,0.917-5.659C59.883,13.244,60.375,11.352,61.709,10.033z"/>
</g>
<g>
	<g>
		<path fill="#0088CC" d="M139.309,12.942c1.664-0.804,3.816,0.681,3.475,2.55c0.059,1.951-2.614,3.039-4.002,1.736
			C137.301,16.145,137.651,13.666,139.309,12.942z"/>
		<path fill="#0088CC" d="M13.573,23.281c1.807-0.529,3.533-1.293,5.056-2.414c1.376,2.314,2.772,4.619,4.167,6.926
			c-2.17,0.592-4.361,1.354-6.645,1.184C15.285,27.084,14.472,25.164,13.573,23.281z"/>
	</g>
</g>
</svg>
